<?xml version="1.0" encoding="UTF-8" standalone="no"?>
<!-- Created with Inkscape (http://www.inkscape.org/) -->

<svg
   xmlns:dc="http://purl.org/dc/elements/1.1/"
   xmlns:cc="http://creativecommons.org/ns#"
   xmlns:rdf="http://www.w3.org/1999/02/22-rdf-syntax-ns#"
   xmlns:svg="http://www.w3.org/2000/svg"
   xmlns="http://www.w3.org/2000/svg"
   xmlns:sodipodi="http://sodipodi.sourceforge.net/DTD/sodipodi-0.dtd"
   xmlns:inkscape="http://www.inkscape.org/namespaces/inkscape"
   id="svg3390"
   version="1.1"
   inkscape:version="0.91 r13725"
   width="256"
   height="256"
   viewBox="0 0 256 256"
   sodipodi:docname="tail.svg">
  <metadata
     id="metadata3396">
    <rdf:RDF>
      <cc:Work
         rdf:about="">
        <dc:format>image/svg+xml</dc:format>
        <dc:type
           rdf:resource="http://purl.org/dc/dcmitype/StillImage" />
        <dc:title></dc:title>
      </cc:Work>
    </rdf:RDF>
  </metadata>
  <defs
     id="defs3394" />
  <sodipodi:namedview
     pagecolor="#ffffff"
     bordercolor="#666666"
     borderopacity="1"
     objecttolerance="10"
     gridtolerance="10"
     guidetolerance="10"
     inkscape:pageopacity="0"
     inkscape:pageshadow="2"
     inkscape:window-width="1366"
     inkscape:window-height="720"
     id="namedview3392"
     showgrid="false"
     inkscape:zoom="1.0308872"
     inkscape:cx="331.63205"
     inkscape:cy="61.658684"
     inkscape:window-x="0"
     inkscape:window-y="0"
     inkscape:window-maximized="1"
     inkscape:current-layer="svg3390" />
  <g
     id="g3344"
     transform="translate(-1.9400766,227.93262)">
    <g
       inkscape:export-ydpi="90"
       inkscape:export-xdpi="90"
       transform="matrix(0.9914076,-0.13080894,0.13080894,0.9914076,14.594974,12.434814)"
       id="g4327">
      <path
         inkscape:connector-curvature="0"
         id="path3428"
         d="m 53.609629,-137.36338 c -0.292213,0.007 -1.122396,-0.59396 -1.84485,-1.33599 -0.722453,-0.74203 -1.71478,-2.10571 -2.20517,-3.03041 -0.664346,-1.25271 -0.863765,-2.59218 -0.782343,-5.2549 0.08468,-2.76937 0.455881,-4.31452 1.649357,-6.86562 0.847045,-1.81058 2.686164,-4.87017 4.08693,-6.79907 1.400767,-1.92891 4.199182,-5.30691 6.218701,-7.50668 2.019519,-2.19977 4.080263,-4.22871 4.579432,-4.50877 0.499168,-0.28005 1.365613,-0.37378 1.925433,-0.20828 0.915663,0.2707 0.989378,0.57266 0.734217,3.00758 -0.23911,2.28175 -0.149155,2.75522 0.573009,3.01599 0.471156,0.17013 2.1157,-0.0683 3.654544,-0.52972 1.538843,-0.46148 2.976653,-0.73342 3.195135,-0.60433 0.218481,0.1291 0.411018,0.92756 0.427859,1.77436 0.03062,1.53963 0.03062,1.53963 3.024619,1.208 1.646699,-0.1824 2.995766,-0.24275 2.997926,-0.13411 0.0022,0.10865 -2.006032,1.25756 -4.462651,2.55315 -2.456619,1.29559 -5.960063,3.35739 -7.785432,4.58179 -1.825368,1.2244 -4.756723,3.43031 -6.514123,4.90202 -1.757399,1.47171 -4.0517,3.74705 -5.098446,5.05632 -1.046746,1.30927 -2.305596,3.33033 -2.797444,4.49124 -0.491848,1.16092 -0.928275,3.02505 -0.969837,4.14252 -0.04156,1.11746 -0.314652,2.03767 -0.606866,2.04491 z m 26.726016,-29.03459 c -2.721106,0.0541 -3.519152,-0.0922 -3.530193,-0.64738 -0.0078,-0.39452 -0.239812,-1.27679 -0.51548,-1.96059 -0.501213,-1.24329 -0.501213,-1.24329 -3.242487,-0.21812 -1.5077,0.56384 -2.938827,1.0291 -3.180282,1.0339 -0.241454,0.005 -0.353692,-1.11306 -0.249417,-2.48414 0.177618,-2.33545 0.104818,-2.52318 -1.152862,-2.97294 -1.093821,-0.39115 -1.252982,-0.64481 -0.859372,-1.36957 0.265694,-0.48923 1.255582,-1.80505 2.199751,-2.92405 1.157067,-1.37131 1.847675,-1.84749 2.118547,-1.46075 0.282718,0.40366 1.352985,-0.025 3.60963,-1.44555 1.764265,-1.11064 3.400845,-2.02386 3.636844,-2.02939 0.235999,-0.006 0.297882,0.56056 0.137517,1.25795 -0.291571,1.26799 -0.291571,1.26799 1.579187,0.40627 1.028917,-0.47395 3.769773,-1.5588 6.09079,-2.41078 2.321018,-0.85198 5.285955,-1.70186 6.588748,-1.88862 1.86656,-0.26758 2.371759,-0.18659 2.383069,0.38204 0.0079,0.39689 -0.605215,1.73443 -1.362463,2.97233 -0.757248,1.23789 -2.429588,3.4619 -3.71631,4.94224 -1.286723,1.48035 -2.19795,2.82756 -2.024949,2.99382 0.173001,0.16625 1.244668,-0.0846 2.381481,-0.55746 2.066933,-0.85974 2.066933,-0.85974 0.889942,0.4722 -0.647345,0.73258 -2.063509,2.01877 -3.147031,2.85822 -1.97004,1.52627 -1.97004,1.52627 -0.226911,1.16342 1.668912,-0.34741 1.70125,-0.32738 0.759502,0.47031 -0.540994,0.45824 -2.033859,1.39872 -3.317476,2.08994 -1.816572,0.97822 -3.113122,1.27227 -5.849775,1.3267 z m 6.985162,-11.1411 c 0.20727,-0.004 1.142337,-0.38957 2.077925,-0.85655 0.992312,-0.49529 2.197251,-1.73568 2.891939,-2.97702 0.654978,-1.17039 1.188683,-2.2379 1.186011,-2.37225 -0.0027,-0.13435 -1.119574,0.13268 -2.482004,0.5934 -1.398746,0.473 -2.474041,1.14018 -2.470014,1.53255 0.0039,0.38218 -0.380597,1.00155 -0.854488,1.37636 -0.812297,0.64248 -0.807088,0.68132 0.091,0.67845 0.920922,-0.003 0.923175,0.0308 0.0677,1.01476 -0.486708,0.55979 -0.71534,1.01442 -0.50807,1.0103 z"
         style="fill:#fdcc8c" />
      <path
         inkscape:connector-curvature="0"
         id="path3426"
         d="m 53.978976,-139.9177 c -0.3349,2.70445 -0.3349,2.70445 -2.18914,0.73219 -1.019832,-1.08474 -2.151363,-2.81581 -2.514515,-3.84682 -0.374333,-1.06275 -0.568161,-2.98224 -0.447573,-4.43233 0.116986,-1.40677 0.751905,-3.84562 1.410932,-5.41966 0.659026,-1.57403 2.124207,-4.28555 3.255958,-6.0256 1.131751,-1.74005 4.406559,-5.68267 7.277351,-8.76139 4.499416,-4.82529 5.350402,-5.52785 6.167423,-5.09173 0.779123,0.4159 0.934618,1.00509 0.873728,3.31072 -0.07407,2.80478 -0.07407,2.80478 1.727882,2.76894 0.991074,-0.0197 2.602834,-0.38933 3.581688,-0.82138 0.978854,-0.43205 1.864739,-0.78724 1.968634,-0.7893 0.103896,-0.002 0.20456,0.78358 0.223699,1.74589 0.0348,1.74966 0.0348,1.74966 2.909444,1.70322 2.874645,-0.0464 2.874645,-0.0464 -2.123058,2.71206 -2.748736,1.51718 -6.74101,4.01098 -8.871719,5.54178 -2.130709,1.5308 -5.2074,4.08114 -6.83709,5.66743 -1.62969,1.58628 -3.664099,4.10306 -4.520909,5.59284 -0.918781,1.59753 -1.695217,3.81811 -1.892735,5.41314 z"
         style="fill:#f69521" />
      <path
         inkscape:connector-curvature="0"
         id="path3424"
         d="m 53.410648,-139.68871 c -0.287572,1.42458 -0.287572,1.42458 -1.504127,0.17692 -0.713541,-0.73178 -1.307751,-2.03034 -1.437114,-3.14062 -0.205852,-1.76675 -0.169314,-1.82926 0.547972,-0.9375 0.471343,0.586 0.76348,0.70155 0.75547,0.29882 -0.0098,-0.49266 0.157256,-0.52094 0.668886,-0.11323 0.37507,0.29889 0.82702,0.39247 1.004334,0.20796 0.177313,-0.18451 0.306585,0.2087 0.28727,0.8738 -0.01931,0.6651 -0.164526,1.85033 -0.322691,2.63385 z"
         style="fill:#c16e0a" />
    </g>
    <text
       inkscape:export-ydpi="90"
       inkscape:export-xdpi="90"
       sodipodi:linespacing="125%"
       id="text3350"
       y="-137.04207"
       x="58.663445"
       style="font-style:normal;font-weight:normal;font-size:40px;line-height:125%;font-family:sans-serif;letter-spacing:0px;word-spacing:0px;fill:#f69521;fill-opacity:1;stroke:none;stroke-width:1px;stroke-linecap:butt;stroke-linejoin:miter;stroke-opacity:1"
       xml:space="preserve"><tspan
         style="font-style:normal;font-variant:normal;font-weight:normal;font-stretch:normal;font-size:40px;line-height:125%;font-family:Arvo;-inkscape-font-specification:'Arvo, Normal';text-align:start;letter-spacing:-1px;word-spacing:0px;writing-mode:lr-tb;text-anchor:start;fill:#f69521;fill-opacity:1"
         y="-137.04207"
         x="58.663445"
         id="tspan3352"
         sodipodi:role="line"><tspan
   dx="0"
   id="tspan4154"
   style="letter-spacing:-1px;word-spacing:0px;fill:#000000;fill-opacity:1">Crafty</tspan>JS</tspan></text>
  </g>
</svg>
